<?xml version="1.0" encoding="utf-8"?>
<!-- Generator: Adobe Illustrator 23.0.2, SVG Export Plug-In . SVG Version: 6.00 Build 0)  -->
<svg version="1.1" id="Layer_1" xmlns="http://www.w3.org/2000/svg" xmlns:xlink="http://www.w3.org/1999/xlink" x="0px" y="0px"
	 viewBox="0 0 12 11" style="enable-background:new 0 0 12 11;" xml:space="preserve">
<g>
	<g>
		<path d="M3,2.6c-0.4,0-0.8-0.3-0.9-0.7L1.9,1.6l0.1-0.3C2.2,0.9,2.6,0.6,3,0.6s0.8,0.3,0.9,0.7l0.1,0.3h7.5l-0.1,0.1L4.1,1.6
			L3.9,1.9C3.8,2.3,3.4,2.6,3,2.6z M0.4,1.6L0.4,1.6h1.1H0.4z"/>
		<path d="M3,1.1c0.2,0,0.4,0.2,0.5,0.3l0.1,0.2L3.5,1.8C3.4,1.9,3.2,2.1,3,2.1S2.6,1.9,2.5,1.8L2.5,1.6l0.1-0.2
			C2.6,1.3,2.8,1.1,3,1.1 M3,0.1c-0.7,0-1.2,0.4-1.4,1H0.4C0.2,1.1,0,1.3,0,1.6v0.1c0,0.2,0.2,0.4,0.4,0.4h1.1c0.2,0.6,0.8,1,1.4,1
			s1.2-0.4,1.4-1h7.1c0.2,0,0.4-0.2,0.4-0.4V1.6c0-0.2-0.2-0.4-0.4-0.4H4.4C4.2,0.5,3.7,0.1,3,0.1L3,0.1z"/>
	</g>
	<g>
		<path d="M9,6.5c-0.4,0-0.8-0.3-0.9-0.7L7.9,5.5l0.1-0.3C8.2,4.8,8.6,4.5,9,4.5s0.8,0.3,0.9,0.7l0.1,0.3h1.5l-0.1,0.1l-1.1-0.1
			h-0.4L9.9,5.8C9.8,6.2,9.4,6.5,9,6.5z M0.4,5.5L0.4,5.5h7.1H0.4z"/>
		<path d="M9,5c0.2,0,0.4,0.2,0.5,0.3l0.1,0.2L9.5,5.7C9.4,5.8,9.2,6,9,6S8.6,5.8,8.5,5.7L8.5,5.5l0.1-0.2C8.6,5.2,8.8,5,9,5 M9,4
			C8.3,4,7.8,4.4,7.6,5H0.4C0.2,5,0,5.2,0,5.4v0.1C0,5.8,0.2,6,0.4,6h7.1C7.8,6.6,8.3,7,9,7s1.2-0.4,1.4-1h1.1C11.8,6,12,5.8,12,5.6
			V5.4C12,5.2,11.8,5,11.6,5h-1.1C10.2,4.4,9.7,4,9,4L9,4z"/>
	</g>
	<g>
		<path d="M5,10.4c-0.4,0-0.8-0.3-0.9-0.7L3.9,9.4l0.1-0.3C4.2,8.7,4.6,8.4,5,8.4s0.8,0.3,0.9,0.7l0.1,0.3h5.5l-0.1,0.1L6.4,9.4H6.1
			L5.9,9.7C5.8,10.1,5.4,10.4,5,10.4z M0.4,9.4L0.4,9.4h3.1H0.4z"/>
		<path d="M5,8.9c0.2,0,0.4,0.2,0.5,0.3l0.1,0.2L5.5,9.6C5.4,9.7,5.2,9.9,5,9.9S4.6,9.7,4.5,9.6L4.5,9.4l0.1-0.2
			C4.6,9.1,4.8,8.9,5,8.9 M5,7.9c-0.7,0-1.2,0.4-1.4,1H0.4C0.2,8.9,0,9.1,0,9.3v0.1c0,0.2,0.2,0.4,0.4,0.4h3.1c0.2,0.6,0.8,1,1.4,1
			s1.2-0.4,1.4-1h5.1c0.2,0,0.4-0.2,0.4-0.4V9.3c0-0.2-0.2-0.4-0.4-0.4H6.4C6.2,8.3,5.7,7.9,5,7.9L5,7.9z"/>
	</g>
</g>
</svg>
