<?xml version="1.0" encoding="utf-8"?>
<!-- Generator: Adobe Illustrator 23.0.2, SVG Export Plug-In . SVG Version: 6.00 Build 0)  -->
<svg version="1.1" id="Layer_2" xmlns="http://www.w3.org/2000/svg" xmlns:xlink="http://www.w3.org/1999/xlink" x="0px" y="0px"
	 viewBox="0 0 22 22" style="enable-background:new 0 0 22 22;" xml:space="preserve">
<g>
	<path d="M3.6,2C3.7,2,3.7,2,3.6,2l8.1,0C13,2,14,3,14,4.3V5c0,0.4-0.3,0.8-0.7,0.8S12.5,5.4,12.5,5V4.3c0-0.4-0.3-0.7-0.8-0.7H8.3
		l0.2,0.1c0.6,0.2,1,0.8,1,1.4v11.3h2.3c0.4,0,0.8-0.3,0.8-0.7V14c0-0.4,0.3-0.7,0.7-0.7S14,13.6,14,14v1.5c0,1.2-1,2.3-2.3,2.3H9.5
		v0.7C9.5,19.3,8.8,20,8,20c-0.2,0-0.3,0-0.5-0.1L3,18.4c-0.6-0.2-1-0.8-1-1.4V3.5C2,2.6,2.8,1.9,3.6,2z"/>
	<path d="M19.8,9l-3-3c-0.2-0.2-0.5-0.3-0.8-0.2c-0.3,0.1-0.5,0.4-0.5,0.7v2.3h-3c-0.4,0-0.7,0.3-0.7,0.7c0,0.4,0.3,0.8,0.7,0.8h3
		v2.3c0,0.3,0.2,0.6,0.5,0.7c0.3,0.1,0.6,0.1,0.8-0.2l3-3C20.1,9.7,20.1,9.3,19.8,9z"/>
</g>
</svg>
