<?xml version="1.0" encoding="utf-8"?>
<!-- Generator: Adobe Illustrator 23.0.2, SVG Export Plug-In . SVG Version: 6.00 Build 0)  -->
<svg version="1.1" id="Layer_2" xmlns="http://www.w3.org/2000/svg" xmlns:xlink="http://www.w3.org/1999/xlink" x="0px" y="0px"
	 viewBox="0 0 22 22" style="enable-background:new 0 0 22 22;" xml:space="preserve">
<style type="text/css">
	.st0{fill:none;stroke:#000000;stroke-width:1.5;stroke-miterlimit:10;}
</style>
<g>
	<g>
		<circle cx="3.5" cy="19.4" r="1.5"/>
		<circle cx="8.5" cy="19.4" r="1.5"/>
		<circle cx="13.5" cy="19.4" r="1.5"/>
		<circle cx="18.5" cy="19.4" r="1.5"/>
	</g>
	<circle class="st0" cx="11" cy="8.1" r="7"/>
	<g>
		<path d="M7,13.9c0.3,0.2,0.5,0.3,0.8,0.5C7.6,14.2,7.3,14,7,13.9z"/>
		<path d="M15,13.9c-0.3,0.2-0.5,0.3-0.8,0.5C14.4,14.2,14.7,14,15,13.9z"/>
		<path d="M15,13.8L15,13.8C15,13.8,15,13.9,15,13.8C15,13.9,15,13.8,15,13.8z"/>
		<path d="M18,8.1c0-3.9-3.1-7-7-7s-7,3.1-7,7c0,2.4,1.2,4.5,3,5.7v-0.7c0-1.3,1.2-2.3,2.6-2.3h0.1h2.5h0.1c1.4,0,2.6,1,2.6,2.3v0.7
			C16.8,12.6,18,10.5,18,8.1z M11.1,9.4c-1.3,0-2.3-1-2.3-2.3s1-2.3,2.3-2.3s2.3,1,2.3,2.3S12.3,9.4,11.1,9.4z"/>
		<path d="M7,13.9C7,13.9,7,13.8,7,13.9L7,13.9C7,13.8,7,13.9,7,13.9z"/>
	</g>
</g>
</svg>
