<?xml version="1.0" encoding="utf-8"?>
<!-- Generator: Adobe Illustrator 23.0.2, SVG Export Plug-In . SVG Version: 6.00 Build 0)  -->
<svg version="1.1" id="Layer_2" xmlns="http://www.w3.org/2000/svg" xmlns:xlink="http://www.w3.org/1999/xlink" x="0px" y="0px"
	 viewBox="0 0 22 22" style="enable-background:new 0 0 22 22;" xml:space="preserve">
<g>
	<circle cx="7.9" cy="5.3" r="4.1"/>
	<path d="M11.7,20.8l2.1-0.2l4.8-4.8l-2.5-2.5L11.3,18l-0.2,2.1C11.1,20.5,11.3,20.8,11.7,20.8C11.7,20.8,11.7,20.8,11.7,20.8z"/>
	<path d="M20.8,12.3L19.5,11c-0.3-0.3-0.9-0.3-1.2,0L17,12.3l-0.1,0.1l2.5,2.5l1.5-1.5C21.2,13.2,21.2,12.6,20.8,12.3z"/>
	<g>
		<path d="M11.2,19.2h2c1,0,1.7-0.8,1.7-1.7V15c0-0.2,0-0.4-0.1-0.5L11.3,18L11.2,19.2z"/>
		<path d="M9.3,17.8l0.1-0.7l0.5-0.5l4.1-4.1c-0.8-1-2-1.7-3.3-1.7h-0.3c-0.8,0.4-1.6,0.6-2.5,0.6s-1.7-0.2-2.5-0.6H5.1
			c-2.3,0-4.2,1.9-4.2,4.2v2.4c0,1,0.8,1.7,1.7,1.7h6.5L9.3,17.8z"/>
	</g>
</g>
</svg>
