<?xml version="1.0" encoding="utf-8"?>
<!-- Generator: Adobe Illustrator 23.0.2, SVG Export Plug-In . SVG Version: 6.00 Build 0)  -->
<svg version="1.1" id="Layer_2" xmlns="http://www.w3.org/2000/svg" xmlns:xlink="http://www.w3.org/1999/xlink" x="0px" y="0px"
	 viewBox="0 0 22 22" style="enable-background:new 0 0 22 22;" xml:space="preserve">
<g>
	<circle cx="16" cy="7.8" r="2.1"/>
	<g>
		<path d="M17.6,11.5h-3.2c-0.2,0-0.5,0-0.7,0.1c0.7,0.9,1.1,2,1.1,3.2v1.5H19c0.6,0,1-0.5,1-1v-1.4C20,12.6,18.9,11.5,17.6,11.5z"
			/>
	</g>
	<g>
		<path d="M11.5,18.1c0.7,0,1.4-0.6,1.4-1.4v-1.9c0-1.8-1.5-3.3-3.3-3.3H9.3C8.7,11.8,8.1,12,7.4,12s-1.3-0.2-1.9-0.5H5.2
			C3.4,11.6,2,13,2,14.8v1.9c0,0.7,0.6,1.4,1.4,1.4H11.5z"/>
		<circle cx="7.4" cy="7.1" r="3.2"/>
	</g>
</g>
</svg>
