<?xml version="1.0" encoding="utf-8"?>
<!-- Generator: Adobe Illustrator 23.0.2, SVG Export Plug-In . SVG Version: 6.00 Build 0)  -->
<svg version="1.1" id="Layer_2" xmlns="http://www.w3.org/2000/svg" xmlns:xlink="http://www.w3.org/1999/xlink" x="0px" y="0px"
	 viewBox="0 0 15 15" style="enable-background:new 0 0 15 15;" xml:space="preserve">
<style type="text/css">
	.st0{fill:#3E5BAA;}
</style>
<path class="st0" d="M10.6,2.5H10V2c0-0.8-0.7-1.5-1.5-1.5h-2C5.7,0.5,5,1.2,5,2v0.5H4.4C3.6,2.5,3,3.1,3,3.9v9.1
	c0,0.8,0.6,1.4,1.4,1.4h6.1c0.8,0,1.4-0.6,1.4-1.4V3.9C12,3.1,11.4,2.5,10.6,2.5z M5.8,12.1L7.1,9L5,8.2l4.2-4.4L7.9,6.9L10,7.8
	L5.8,12.1z"/>
</svg>
