<?xml version="1.0" encoding="utf-8"?>
<!-- Generator: Adobe Illustrator 23.0.2, SVG Export Plug-In . SVG Version: 6.00 Build 0)  -->
<svg version="1.1" id="Layer_2" xmlns="http://www.w3.org/2000/svg" xmlns:xlink="http://www.w3.org/1999/xlink" x="0px" y="0px"
	 viewBox="0 0 16 16" style="enable-background:new 0 0 16 16;" xml:space="preserve">
<style type="text/css">
	.st0{fill:#D8D8D8;}
</style>
<path class="st0" d="M8,0C3.6,0,0,3.6,0,8s3.6,8,8,8c4.4,0,8-3.6,8-8S12.4,0,8,0z M12.2,5.4l-4.5,6c0,0,0,0,0,0c0,0,0,0,0,0
	c0,0.1-0.1,0.1-0.2,0.1c0,0-0.1,0-0.1,0.1c-0.1,0-0.2,0.1-0.3,0.1c0,0,0,0,0,0c0,0,0,0,0,0c-0.1,0-0.2,0-0.2,0c0,0-0.1,0-0.1,0
	c0,0-0.1,0-0.1-0.1c0,0,0,0,0,0c0,0,0,0,0,0L3.4,8.7C3,8.5,3,8,3.3,7.7C3.6,7.4,4,7.3,4.3,7.6l2.6,2.3l4-5.3c0.2-0.3,0.7-0.4,1-0.2
	C12.3,4.6,12.4,5.1,12.2,5.4z"/>
</svg>
