<?xml version="1.0" encoding="utf-8"?>
<!-- Generator: Adobe Illustrator 23.0.2, SVG Export Plug-In . SVG Version: 6.00 Build 0)  -->
<svg version="1.1" id="Layer_2" xmlns="http://www.w3.org/2000/svg" xmlns:xlink="http://www.w3.org/1999/xlink" x="0px" y="0px"
	 viewBox="0 0 16 16" style="enable-background:new 0 0 16 16;" xml:space="preserve">
<style type="text/css">
	.st0{fill:#FE6158;}
</style>
<path class="st0" d="M8,0C3.6,0,0,3.6,0,8s3.6,8,8,8s8-3.6,8-8S12.4,0,8,0z M11.5,10.5c0.3,0.3,0.3,0.8,0,1.1
	c-0.1,0.1-0.3,0.2-0.5,0.2s-0.4-0.1-0.5-0.2L8,9.1l-2.5,2.5c-0.1,0.1-0.3,0.2-0.5,0.2s-0.4-0.1-0.5-0.2c-0.3-0.3-0.3-0.8,0-1.1
	L6.9,8L4.5,5.5c-0.3-0.3-0.3-0.8,0-1.1s0.8-0.3,1.1,0L8,6.9l2.5-2.5c0.3-0.3,0.8-0.3,1.1,0s0.3,0.8,0,1.1L9.1,8L11.5,10.5z"/>
</svg>
